<svg width="160" height="133" viewBox="0 0 160 133" fill="none" xmlns="http://www.w3.org/2000/svg">
<path fill-rule="evenodd" clip-rule="evenodd" d="M69.2073 73.2927C56.6664 73.2927 46.5 83.4591 46.5 96H58.5488C58.5488 88.3219 64.7731 82.0976 72.4512 82.0976H96.5488C104.227 82.0976 110.451 88.3219 110.451 96H122.5C122.5 83.4591 112.334 73.2927 99.7927 73.2927H69.2073ZM71.1537 122.415H99.7927C112.334 122.415 122.5 112.248 122.5 99.7073H46.5C46.5 107.424 50.3489 114.241 56.2317 118.345V132.146L71.1537 122.415ZM58.5488 99.7073C58.5488 107.385 64.7731 113.61 72.4512 113.61H96.5488C104.227 113.61 110.451 107.385 110.451 99.7073H58.5488Z" fill="#F1851F"/>
<circle cx="96.0854" cy="97.8537" r="4.17073" fill="black"/>
<circle cx="74.7683" cy="97.8537" r="4.17073" fill="black"/>
<circle cx="84.9635" cy="62.1707" r="4.17073" fill="#F1851F"/>
<line x1="85" y1="65.4146" x2="85" y2="74.2195" stroke="#F1851F" stroke-width="3"/>
<circle cx="19" cy="69.5" r="3.5" fill="#F1851F"/>
<circle cx="23" cy="47.5" r="3.5" fill="#FFD7AF"/>
<circle cx="39" cy="73.5" r="3.5" fill="black"/>
<circle cx="47" cy="35.5" r="3.5" fill="#EEEEEE"/>
<circle cx="35" cy="54.5" r="3.5" fill="black"/>
<circle cx="61" cy="44.5" r="3.5" fill="#FEA349"/>
<circle cx="75" cy="56.5" r="3.5" fill="#FFD7AF"/>
<circle cx="54" cy="61.5" r="3.5" fill="#EEEEEE"/>
<circle cx="86" cy="42.5" r="3.5" fill="black"/>
<circle cx="97" cy="56.5" r="3.5" fill="#FEA349"/>
<circle cx="111" cy="47.5" r="3.5" fill="#FEA349"/>
<circle cx="117" cy="61.5" r="3.5" fill="#EEEEEE"/>
<circle cx="131" cy="73.5" r="3.5" fill="#F1851F"/>
<circle cx="153" cy="68.5" r="3.5" fill="#FFD7AF"/>
<circle cx="133" cy="57.5" r="3.5" fill="black"/>
<circle cx="131" cy="40.5" r="3.5" fill="#FFD7AF"/>
<circle cx="101" cy="32.5" r="3.5" fill="#FFD7AF"/>
<circle cx="70" cy="31.5" r="3.5" fill="#FFD7AF"/>
<circle cx="57" cy="17.5" r="3.5" fill="black"/>
<circle cx="88" cy="19.5" r="3.5" fill="#EEEEEE"/>
<circle cx="121" cy="24.5" r="3.5" fill="black"/>
<circle cx="149" cy="27.5" r="3.5" fill="#F1851F"/>
<circle cx="108" cy="6.5" r="3.5" fill="#FEA349"/>
<circle cx="73" cy="3.5" r="3.5" fill="#F1851F"/>
<circle cx="36" cy="10.5" r="3.5" fill="#FEA349"/>
<circle cx="4" cy="36.5" r="3.5" fill="#FEA349"/>
<circle cx="156" cy="49.5" r="3.5" fill="#EEEEEE"/>
<circle cx="27" cy="29.5" r="3.5" fill="#EEEEEE"/>
</svg>
